<?xml version="1.0" encoding="UTF-8"?><svg id="Layer_1" xmlns="http://www.w3.org/2000/svg" viewBox="0 0 585.22 708.89"><defs><style>.cls-1{fill:#eee;stroke:#000;stroke-linejoin:round;}</style></defs><path id="Front" class="cls-1" d="m149.4,404.8c-1,12.3,11.1,77.6,15.4,103.1,2,12.1,7.7,31.7,5.6,42.2-2.9,14.6-3.7,33.4-2.1,44.4,1,6.7,4.2,37.4-.4,48.6-2.4,5.9-6.7,36.1-6.7,36.1-11.3,28.5-4.9,27-4.9,27,3.5,4.3,9.5.3,9.5.3,4.6,2.9,7.7-.7,7.7-.7,3.9,3.2,8.5-.4,8.5-.4,4.9,2.5,9.5-2.1,9.5-2.1,2.8,1.4,3.5-.4,3.5-.4,8.5-.5-4.7-27.6-4.7-27.6-3.2-24.3,3.1-37.8,3.1-37.8,20.6-61.1,21.6-77.3,13.4-100.3-2.3-6.6-2.9-9.3-1.8-12.2,2.5-6.7.7-33.4,3.7-44.1,5.8-20.5,11.5-72.5,14.5-96.8,4-32.7-14.2-76.5-14.2-76.5-4-17.8,1.9-81.4,1.9-81.4,8.2,12.7,7.9,35.1,7.9,35.1-1.3,23.5,19,59.5,19,59.5,9.8,14.9,13.5,29,13.5,30,0,4.3-.9,14.6-.9,14.6l.4,9c.2,2.3,1.5,10.2,1.3,14-1.5,23.5,2.2,19.1,2.2,19.1,3.2,0,6.6-18.9,6.6-18.9,0,4.9-1.2,19.5,1.4,25,3.2,6.6,5.5-1.1,5.5-2.7.8-30,2.6-22.1,2.6-22.1,1.8,24.3,3.9,29.8,7.8,27.9,2.9-1.4.3-29.2.3-29.2,5,16.5,8.8,19.1,8.8,19.1,8.3,5.8,3.2-10.2,2-13.4-6.1-16.9-6.3-22.7-6.3-22.7,7.6,15.2,13.4,14.6,13.4,14.6,7.5-2.4-6.5-23.9-14.7-34.1-4.2-5.2-9.6-12.3-11.1-16.4-2.5-7.1-4.5-29.8-4.5-29.8-.8-26.8-7.4-38.4-7.4-38.4-11.3-18.1-13.5-51.9-13.5-51.9l-.5-57.1c-4-38.9-32.6-39.2-32.6-39.2-29-4.3-33-13.7-33-13.7-6.1-8.8-2.6-25.8-2.6-25.8,5.1-4.1,7.1-15.1,7.1-15.1,8.5-6.5,8-16,4.1-15.9-3.1.1-2.4-2.5-2.4-2.5C190.2,2.7,152.3.5,152.3.5h-5.8s-38,2.2-32.7,44.9c0,0,.7,2.6-2.5,2.5-3.9-.1-4.3,9.4,4.2,15.9,0,0,2,11,7.1,15.1,0,0,3.5,16.9-2.6,25.8,0,0-4,9.4-33,13.7,0,0-28.7.3-32.6,39.2l-.5,57.1s-2.1,33.8-13.5,51.9c0,0-6.6,11.6-7.4,38.4,0,0-1.9,22.7-4.5,29.8-1.5,4.1-6.9,11.2-11.1,16.4-8.3,10.2-22.2,31.7-14.8,34.1,0,0,5.8.6,13.4-14.6,0,0-.2,5.8-6.3,22.7-1.2,3.1-6.3,19.2,2,13.4,0,0,3.8-2.6,8.8-19.1,0,0-2.7,27.8.3,29.2,3.9,1.9,6-3.6,7.8-27.9,0,0,1.8-7.9,2.6,22.1,0,1.5,2.3,9.3,5.5,2.7,2.7-5.5,1.5-20.1,1.5-25,0,0,3.4,18.9,6.6,18.9,0,0,3.8,4.4,2.2-19.1-.3-3.8,1.1-11.7,1.3-14l.4-9s-.9-10.3-.9-14.6c0-1.1,3.7-15.1,13.5-30,0,0,20.3-36,19-59.5,0,0-.3-22.4,7.9-35.1,0,0,5.8,63.6,1.9,81.4,0,0-18.2,43.8-14.2,76.5,3,24.3,8.7,76.3,14.5,96.8,3,10.6,1.2,37.4,3.7,44.1,1.1,2.9.5,5.6-1.8,12.2-8.2,23-7.1,39.2,13.5,100.3,0,0,6.3,13.5,3.1,37.8,0,0-13.2,27.1-4.7,27.6,0,0,.7,1.8,3.5.4,0,0,4.6,4.7,9.5,2.1,0,0,4.6,3.6,8.4.4,0,0,3.1,3.6,7.7.7,0,0,6,4,9.5-.3,0,0,6.3,1.4-4.9-27,0,0-4.3-30.2-6.7-36.1-4.5-11.2-1.3-42-.4-48.6,1.6-11,.7-29.8-2.1-44.4-2.1-10.4,3.6-30.1,5.6-42.2,4.1-25.7,15.1-103.3,15.1-103.3h0Z"/></svg>