<svg width="421" height="353" viewBox="0 0 421 353" fill="none" xmlns="http://www.w3.org/2000/svg">
<g clip-path="url(#clip0_2_1587)">
<path d="M136.737 37.515L141.294 57.749L131.601 85.9126L115.983 55.653L118.15 38.0982L136.737 37.515Z" fill="#FDB4B4"/>
<path d="M142.141 56.701H115.175V88.4016H142.141V56.701Z" fill="#6C63FF"/>
<path d="M131.052 47.7072C141.223 47.7072 149.468 39.6851 149.468 29.7895C149.468 19.8938 141.223 11.8717 131.052 11.8717C120.881 11.8717 112.636 19.8938 112.636 29.7895C112.636 39.6851 120.881 47.7072 131.052 47.7072Z" fill="#FDB4B4"/>
<path d="M115.022 43.1131C115.022 43.1131 101.294 18.4469 113.671 6.57691C126.048 -5.29309 135.984 2.5285 135.984 2.5285L141.657 2.30541C141.657 2.30541 142.84 6.6496 144.748 4.29791C146.656 1.94622 150.104 10.5108 150.104 10.5108C156.504 21.7238 134.32 24.2357 134.32 24.2357C134.32 24.2357 135.922 29.2005 134.293 30.2402C132.665 31.28 128.315 35.1913 128.315 35.1913L124.421 38.0525L122.107 34.6223C122.107 34.6223 119.69 32.7659 118.469 33.5457C117.247 34.3255 118.927 44.5857 118.927 44.5857L115.022 43.1131Z" fill="#2E2E41"/>
<path d="M92.9291 224.578L85.8882 326.764L103.197 327.334L126.08 225.434L92.9291 224.578Z" fill="#2E2E41"/>
<path d="M134.881 224.007L127.84 326.193L145.149 326.764L168.032 224.864L134.881 224.007Z" fill="#2E2E41"/>
<path d="M88.6893 247.925L97.9037 136.63L83.773 78.6767C82.5548 70.0618 88.1338 61.9104 96.7442 59.6877L110.571 56.1186L116.691 50.1639L130.612 80.0727L139.305 50.1868L146.086 54.9844L166.195 63.6163L166.186 63.8184L162.96 133.826L170.161 246.934L169.841 246.938L88.6893 247.925Z" fill="#E8E9EA"/>
<path d="M144.038 325.602L149.05 340.159C149.05 340.159 168.657 342.753 168.962 348.659C169.268 354.565 142.315 351.146 126.532 351.918C110.75 352.69 123.887 336.061 123.887 336.061L125.569 326.506L144.038 325.602Z" fill="#2E2E41"/>
<path d="M103.108 324.554L108.12 339.112C108.12 339.112 127.728 341.705 128.033 347.611C128.338 353.517 101.385 350.098 85.6026 350.87C69.8201 351.642 82.9578 335.013 82.9578 335.013L84.6396 325.458L103.108 324.554Z" fill="#2E2E41"/>
<path d="M78.656 188.817C78.4435 185.947 78.9407 183.069 80.106 180.424L76.3655 150.57L91.0181 149.254L93.2344 179.679C94.7069 182.174 95.544 184.975 95.6757 187.849C96.1066 195.038 92.6459 201.079 87.9455 201.346C83.2451 201.613 79.0858 196.004 78.656 188.817Z" fill="#FDB4B4"/>
<path d="M171.462 193.199C171.282 190.327 171.811 187.455 173.006 184.822L169.601 154.93L184.267 153.769L186.142 184.217C187.587 186.727 188.392 189.537 188.492 192.412C188.842 199.604 185.314 205.609 180.611 205.826C175.908 206.043 171.812 200.39 171.462 193.199Z" fill="#FDB4B4"/>
<path d="M76.3054 176.845L76.2559 176.587L68.6194 136.722L77.6427 71.8066C78.4478 66.0111 83.7668 61.8362 89.7648 62.3028C92.8972 62.5468 95.7076 63.9922 97.679 66.3734C99.6502 68.7547 100.503 71.7345 100.081 74.7642L93.2892 123.45L97.5651 175.524L76.3054 176.845Z" fill="#E8E9EA"/>
<path d="M166.937 175.909L151.583 76.197C150.785 73.2732 151.252 70.2134 152.905 67.6133C154.558 65.0132 157.163 63.2404 160.241 62.621C166.128 61.4363 171.942 64.9379 173.479 70.5914L188.229 174.657L166.937 175.909Z" fill="#E8E9EA"/>
<path d="M131.062 89.1875C132.103 89.1875 132.947 88.3664 132.947 87.3536C132.947 86.3407 132.103 85.5197 131.062 85.5197C130.021 85.5197 129.177 86.3407 129.177 87.3536C129.177 88.3664 130.021 89.1875 131.062 89.1875Z" fill="#D6D7D8"/>
<path d="M131.062 103.073C132.103 103.073 132.947 102.252 132.947 101.239C132.947 100.226 132.103 99.405 131.062 99.405C130.021 99.405 129.177 100.226 129.177 101.239C129.177 102.252 130.021 103.073 131.062 103.073Z" fill="#D6D7D8"/>
<path d="M131.062 116.958C132.103 116.958 132.947 116.137 132.947 115.124C132.947 114.111 132.103 113.29 131.062 113.29C130.021 113.29 129.177 114.111 129.177 115.124C129.177 116.137 130.021 116.958 131.062 116.958Z" fill="#D6D7D8"/>
<path d="M131.062 130.844C132.103 130.844 132.947 130.023 132.947 129.01C132.947 127.997 132.103 127.176 131.062 127.176C130.021 127.176 129.177 127.997 129.177 129.01C129.177 130.023 130.021 130.844 131.062 130.844Z" fill="#D6D7D8"/>
<path d="M131.062 144.729C132.103 144.729 132.947 143.908 132.947 142.895C132.947 141.882 132.103 141.061 131.062 141.061C130.021 141.061 129.177 141.882 129.177 142.895C129.177 143.908 130.021 144.729 131.062 144.729Z" fill="#D6D7D8"/>
<path d="M131.062 158.614C132.103 158.614 132.947 157.793 132.947 156.78C132.947 155.767 132.103 154.946 131.062 154.946C130.021 154.946 129.177 155.767 129.177 156.78C129.177 157.793 130.021 158.614 131.062 158.614Z" fill="#D6D7D8"/>
<path d="M131.062 172.5C132.103 172.5 132.947 171.679 132.947 170.666C132.947 169.653 132.103 168.832 131.062 168.832C130.021 168.832 129.177 169.653 129.177 170.666C129.177 171.679 130.021 172.5 131.062 172.5Z" fill="#D6D7D8"/>
<path d="M131.062 186.385C132.103 186.385 132.947 185.564 132.947 184.551C132.947 183.538 132.103 182.717 131.062 182.717C130.021 182.717 129.177 183.538 129.177 184.551C129.177 185.564 130.021 186.385 131.062 186.385Z" fill="#D6D7D8"/>
<path d="M131.064 197.126L95.3994 192.502L94.7126 192.413L76.4852 151.522L65.6301 127.177H93.9042L131.064 197.126Z" fill="#6C63FF"/>
<path d="M274.061 41.9637L296.736 29.8779V64.4086H270.512L274.061 41.9637Z" fill="#2E2E41"/>
<path d="M301.597 49.6623L303.69 66.6148L288.608 95.836L279.247 68.6387L283.648 49.0991L301.597 49.6623Z" fill="#FDB4B4"/>
<path d="M304.47 67.6268H278.429V98.2396H304.47V67.6268Z" fill="#6C63FF"/>
<path d="M325.952 229.743L332.752 328.422L316.037 328.974L293.939 230.57L325.952 229.743Z" fill="#2E2E41"/>
<path d="M285.44 229.192L292.239 327.871L275.524 328.423L253.426 230.019L285.44 229.192Z" fill="#2E2E41"/>
<path d="M343.612 250.673L343.214 250.672L236.731 250.333L236.827 249.967L264.203 144.435L257.345 91.1777C256.046 81.0859 261.598 71.5471 271.162 67.4421L274.615 65.9603L281.174 61.3194L289.565 90.1671L303.002 61.2969L308.921 67.0552L322.271 70.5013C330.591 72.649 335.982 80.5255 334.81 88.8227L334.795 88.8805L314.409 145.477L343.612 250.673Z" fill="#E8E9EA"/>
<path d="M276.597 327.301L294.432 328.173L296.056 337.401C296.056 337.401 308.743 353.459 293.502 352.714C278.261 351.969 252.233 355.27 252.528 349.567C252.823 343.864 271.757 341.359 271.757 341.359L276.597 327.301Z" fill="#2E2E41"/>
<path d="M316.123 326.289L333.957 327.161L335.582 336.389C335.582 336.389 348.268 352.447 333.028 351.702C317.787 350.957 291.759 354.258 292.053 348.555C292.348 342.852 311.283 340.347 311.283 340.347L316.123 326.289Z" fill="#2E2E41"/>
<path d="M332.455 194.198C332.04 201.137 328.023 206.554 323.484 206.296C318.945 206.038 315.603 200.205 316.019 193.263C316.146 190.487 316.954 187.782 318.376 185.373L320.517 155.992L334.667 157.263L331.054 186.093C332.18 188.647 332.66 191.426 332.455 194.198Z" fill="#FDB4B4"/>
<path d="M259.74 191.559C259.173 198.488 255.039 203.821 250.507 203.469C245.974 203.117 242.761 197.215 243.329 190.284C243.517 187.512 244.384 184.824 245.858 182.445L248.641 153.115L262.76 154.678L258.518 183.427C259.587 186.004 260.006 188.792 259.74 191.559Z" fill="#FDB4B4"/>
<path d="M334.733 182.647L314.183 181.37L314.208 181.071L318.313 131.074L311.756 84.0597C311.347 81.1313 312.171 78.2508 314.076 75.9493C315.982 73.6475 318.698 72.2502 321.727 72.0143C327.524 71.5697 332.665 75.599 333.444 81.2009L342.157 143.891L342.148 143.937L334.733 182.647Z" fill="#E8E9EA"/>
<path d="M263.161 180.731L242.579 179.521L242.624 179.205L256.817 79.0494C258.31 73.5486 263.932 70.1652 269.62 71.3098C272.595 71.9083 275.113 73.622 276.711 76.1355C278.308 78.6489 278.76 81.6062 277.982 84.463L263.161 180.731Z" fill="#E8E9EA"/>
<path d="M289.128 98.9985C290.133 98.9985 290.948 98.2056 290.948 97.2275C290.948 96.2494 290.133 95.4565 289.128 95.4565C288.123 95.4565 287.308 96.2494 287.308 97.2275C287.308 98.2056 288.123 98.9985 289.128 98.9985Z" fill="#D6D7D8"/>
<path d="M289.128 112.407C290.133 112.407 290.948 111.615 290.948 110.636C290.948 109.658 290.133 108.865 289.128 108.865C288.123 108.865 287.308 109.658 287.308 110.636C287.308 111.615 288.123 112.407 289.128 112.407Z" fill="#D6D7D8"/>
<path d="M289.128 125.816C290.133 125.816 290.948 125.023 290.948 124.045C290.948 123.067 290.133 122.274 289.128 122.274C288.123 122.274 287.308 123.067 287.308 124.045C287.308 125.023 288.123 125.816 289.128 125.816Z" fill="#D6D7D8"/>
<path d="M289.128 139.225C290.133 139.225 290.948 138.432 290.948 137.454C290.948 136.476 290.133 135.683 289.128 135.683C288.123 135.683 287.308 136.476 287.308 137.454C287.308 138.432 288.123 139.225 289.128 139.225Z" fill="#D6D7D8"/>
<path d="M289.128 152.634C290.133 152.634 290.948 151.841 290.948 150.863C290.948 149.885 290.133 149.092 289.128 149.092C288.123 149.092 287.308 149.885 287.308 150.863C287.308 151.841 288.123 152.634 289.128 152.634Z" fill="#D6D7D8"/>
<path d="M289.128 166.043C290.133 166.043 290.948 165.25 290.948 164.272C290.948 163.294 290.133 162.501 289.128 162.501C288.123 162.501 287.308 163.294 287.308 164.272C287.308 165.25 288.123 166.043 289.128 166.043Z" fill="#D6D7D8"/>
<path d="M289.128 179.452C290.133 179.452 290.948 178.659 290.948 177.681C290.948 176.703 290.133 175.91 289.128 175.91C288.123 175.91 287.308 176.703 287.308 177.681C287.308 178.659 288.123 179.452 289.128 179.452Z" fill="#D6D7D8"/>
<path d="M289.128 192.861C290.133 192.861 290.948 192.068 290.948 191.09C290.948 190.112 290.133 189.319 289.128 189.319C288.123 189.319 287.308 190.112 287.308 191.09C287.308 192.068 288.123 192.861 289.128 192.861Z" fill="#D6D7D8"/>
<path d="M291.891 58.3142C301.294 58.3142 308.917 50.8978 308.917 41.7493C308.917 32.6007 301.294 25.1843 291.891 25.1843C282.488 25.1843 274.866 32.6007 274.866 41.7493C274.866 50.8978 282.488 58.3142 291.891 58.3142Z" fill="#FDB4B4"/>
<path d="M300.814 22.4118C301.63 24.0261 300.336 26.0427 298.623 26.7214C296.911 27.4001 294.977 27.1251 293.151 26.8426C291.325 26.5601 289.387 26.2922 287.68 26.9829C285.471 27.8767 284.226 30.1186 283.153 32.1991C281.15 36.083 279.147 39.9669 277.144 43.8507C276.165 45.7483 275.164 47.7312 275.145 49.8543C275.111 53.7512 278.288 56.8655 279.997 60.3899C282.079 64.6809 281.907 69.9396 279.55 74.0935C277.193 78.2474 272.711 81.1906 267.869 81.7631C266.596 81.9137 265.248 81.8974 264.102 81.3344C262.957 80.7713 262.083 79.5418 262.295 78.3105C262.71 75.9023 266.492 75.3396 267.187 72.9932C267.549 71.7683 266.907 70.4603 266.041 69.5036C265.176 68.5469 264.081 67.8006 263.255 66.811C261.351 64.5291 261.224 61.0066 262.959 58.6007C263.979 57.1867 265.556 56.1362 266.216 54.5323C266.777 53.1652 266.573 51.6284 266.361 50.1707C266.087 48.2976 265.814 46.4245 265.54 44.5514C265.221 42.366 264.907 40.1023 265.538 37.9819C266.982 33.1229 272.621 30.8408 275.928 26.9377C277.465 25.124 278.499 22.9428 280.075 21.1617C282.721 18.1729 286.886 16.5241 290.925 16.8668C294.964 17.2096 298.773 19.5351 300.847 22.9244" fill="#2E2E41"/>
<path d="M298.126 22.7181C297.294 23.0076 296.985 24.0616 297.225 24.889C297.464 25.7163 298.091 26.3736 298.665 27.027C305.156 34.4174 306.664 45.5959 302.355 54.366C301.208 56.6987 299.681 58.8941 299.063 61.4088C298.613 63.2385 298.637 65.2456 297.594 66.8296C296.532 68.4423 294.427 69.5229 294.219 71.4276C294.085 72.6499 294.851 73.8372 295.877 74.5538C296.904 75.2704 298.158 75.5983 299.391 75.8656C302.596 76.5605 305.873 76.9398 309.156 76.996C310.227 77.0143 311.331 76.9918 312.313 76.5768C313.295 76.1619 314.133 75.2619 314.144 74.2204C314.153 73.4019 313.668 72.6467 313.606 71.8303C313.421 69.384 316.804 68.0826 317.463 65.715C317.896 64.1585 317.043 62.5567 316.133 61.2086C315.223 59.8604 314.185 58.4448 314.208 56.8323C314.229 55.2886 315.225 53.9291 315.612 52.4319C316.147 50.3609 315.49 48.1947 314.837 46.1558C314.283 44.4223 313.729 42.6888 313.174 40.9553C312.585 39.1125 311.995 37.2698 311.406 35.427C310.377 32.21 309.296 28.8997 307.069 26.3194C304.843 23.7392 301.153 22.048 297.863 23.1015" fill="#2E2E41"/>
<path d="M309.727 86.9074L308.56 86.5765C310.991 78.4661 305.749 63.331 305.696 63.1791L306.847 62.7974C307.069 63.4323 312.265 78.4419 309.727 86.9074Z" fill="#3F3C57"/>
<path d="M309.144 96.2231C311.948 96.2231 314.221 94.0113 314.221 91.283C314.221 88.5547 311.948 86.3429 309.144 86.3429C306.34 86.3429 304.066 88.5547 304.066 91.283C304.066 94.0113 306.34 96.2231 309.144 96.2231Z" fill="#3F3C57"/>
<path d="M275.782 108.773H272.702C272.366 108.773 272.094 108.508 272.094 108.181C272.094 107.855 272.366 107.59 272.702 107.59H275.782C276.63 107.59 277.427 107.268 278.027 106.684C278.626 106.1 278.955 105.323 278.953 104.498L278.916 86.0444C278.916 82.0355 275.565 78.7751 271.446 78.7751C267.327 78.7751 263.975 82.0355 263.975 86.0432L264.012 103.316C264.016 105.001 265.428 106.382 267.16 106.395L269.273 106.411C269.609 106.414 269.879 106.68 269.876 107.007C269.874 107.332 269.602 107.594 269.269 107.594H269.264L267.15 107.578C264.755 107.56 262.801 105.649 262.797 103.318L262.759 86.0444C262.759 81.3836 266.656 77.5924 271.446 77.5924C276.235 77.5924 280.132 81.3836 280.132 86.0432L280.169 104.496C280.171 105.637 279.716 106.711 278.887 107.519C278.058 108.327 276.955 108.773 275.782 108.773Z" fill="#3F3C57"/>
<path d="M269.269 109.098C270.459 109.098 271.423 108.16 271.423 107.002C271.423 105.845 270.459 104.906 269.269 104.906C268.079 104.906 267.115 105.845 267.115 107.002C267.115 108.16 268.079 109.098 269.269 109.098Z" fill="#3F3C57"/>
<path d="M272.702 110.277C273.892 110.277 274.856 109.339 274.856 108.181C274.856 107.024 273.892 106.085 272.702 106.085C271.512 106.085 270.548 107.024 270.548 108.181C270.548 109.339 271.512 110.277 272.702 110.277Z" fill="#3F3C57"/>
<path d="M148.343 78.0436L147.176 77.7127C149.607 69.6023 144.424 54.2327 144.371 54.0808L145.829 55.1506C146.052 55.7855 150.881 69.578 148.343 78.0436Z" fill="#3F3C57"/>
<path d="M107.323 79.4844L108.49 79.1535C106.059 71.0431 111.301 55.908 111.354 55.7561L110.106 56.5696C109.883 57.2046 104.785 71.0189 107.323 79.4844Z" fill="#3F3C57"/>
<path d="M147.759 87.3592C150.563 87.3592 152.837 85.1474 152.837 82.4191C152.837 79.6908 150.563 77.479 147.759 77.479C144.955 77.479 142.682 79.6908 142.682 82.4191C142.682 85.1474 144.955 87.3592 147.759 87.3592Z" fill="#3F3C57"/>
<path d="M112.736 109.864H109.657C109.321 109.864 109.049 109.599 109.049 109.273C109.049 108.946 109.321 108.682 109.657 108.682H112.736C113.585 108.682 114.382 108.36 114.982 107.775C115.581 107.191 115.91 106.415 115.908 105.59L115.871 87.1361C115.871 83.1272 112.52 79.8668 108.401 79.8668C104.281 79.8668 100.93 83.1272 100.93 87.1349L100.967 104.408C100.971 106.093 102.383 107.474 104.115 107.487L106.228 107.503C106.564 107.505 106.834 107.772 106.831 108.099C106.829 108.423 106.557 108.685 106.223 108.685H106.219L104.105 108.67C101.71 108.652 99.7563 106.741 99.7515 104.41L99.7141 87.1361C99.7141 82.4752 103.611 78.6841 108.401 78.6841C113.19 78.6841 117.086 82.4752 117.086 87.1349L117.124 105.587C117.126 106.729 116.671 107.803 115.842 108.611C115.013 109.419 113.91 109.864 112.736 109.864Z" fill="#3F3C57"/>
<path d="M106.224 110.19C107.414 110.19 108.378 109.251 108.378 108.094C108.378 106.936 107.414 105.998 106.224 105.998C105.034 105.998 104.07 106.936 104.07 108.094C104.07 109.251 105.034 110.19 106.224 110.19Z" fill="#3F3C57"/>
<path d="M109.657 111.369C110.847 111.369 111.811 110.43 111.811 109.273C111.811 108.115 110.847 107.177 109.657 107.177C108.467 107.177 107.503 108.115 107.503 109.273C107.503 110.43 108.467 111.369 109.657 111.369Z" fill="#3F3C57"/>
</g>
<defs>
<clipPath id="clip0_2_1587">
<rect width="421" height="353" fill="white"/>
</clipPath>
</defs>
</svg>
