<?xml version="1.0" encoding="UTF-8"?><svg id="Layer_1" xmlns="http://www.w3.org/2000/svg" viewBox="0 0 576.79 703.56"><defs><style>.cls-1{fill:#eee;stroke:#000;stroke-linejoin:round;}</style></defs><path id="Back" class="cls-1" d="m427.28,404.46c-1,12.29,11.09,77.54,15.39,103.01,2,12.09,7.69,31.67,5.6,42.16-2.9,14.59-3.7,33.37-2.1,44.36,1,6.69,4.2,37.37-.4,48.56-2.4,5.9-5.76,37.94-5.76,37.94-2.13,19.14,5.76,21.81,5.76,21.81,9.08,1.83,24.24-3.81,24.24-3.81,52.57-15.86,0-18,0-18-3.2-24.28,1.24-43.53,1.24-43.53,20.58-61.05,21.58-77.24,13.39-100.22-2.3-6.59-2.9-9.29-1.8-12.19,2.5-6.7.7-33.37,3.7-44.06,5.8-20.48,11.49-72.44,14.49-96.72,4-32.67-14.19-76.44-14.19-76.44-4-17.79,1.9-81.33,1.9-81.33,8.19,12.69,7.89,35.07,7.89,35.07-1.3,23.48,18.98,59.45,18.98,59.45,9.79,14.89,13.49,28.98,13.49,29.98,0,4.3-.9,14.59-.9,14.59l.4,8.99c.2,2.3,1.5,10.19,1.3,13.99-1.5,23.48,2.2,19.08,2.2,19.08,3.2,0,6.59-18.88,6.59-18.88,0,4.9-1.2,19.48,1.4,24.98,3.2,6.59,5.5-1.1,5.5-2.7.8-29.97,2.6-22.08,2.6-22.08,1.8,24.28,3.9,29.77,7.79,27.88,2.9-1.4.3-29.17.3-29.17,4.99,16.49,8.79,19.08,8.79,19.08,8.29,5.8,3.2-10.19,2-13.39-6.09-16.89-6.29-22.68-6.29-22.68,7.59,15.19,13.39,14.59,13.39,14.59,7.49-2.4-6.49-23.88-14.69-34.07-4.2-5.2-9.59-12.29-11.09-16.39-2.5-7.1-4.5-29.78-4.5-29.78-.8-26.78-7.39-38.37-7.39-38.37-11.59-17.89-13.69-51.66-13.69-51.66l-.5-57.05c-4-38.87-32.67-39.17-32.67-39.17-28.98-4.3-32.97-13.69-32.97-13.69-6.1-8.79-2.6-25.78-2.6-25.78,5.1-4.1,7.1-15.09,7.1-15.09,8.49-6.49,7.99-15.99,4.1-15.89-3.1.1-2.4-2.5-2.4-2.5C468.14,2.7,430.17.5,430.17.5h-5.8s-37.87,2.2-32.67,44.86c0,0,.7,2.6-2.5,2.5-3.9-.1-4.3,9.39,4.2,15.89,0,0,2,10.99,7.09,15.09,0,0,3.5,16.89-2.6,25.78,0,0-4,9.39-32.97,13.69,0,0-28.68.3-32.57,39.17l-.5,57.05s-2.1,33.77-13.49,51.86c0,0-6.59,11.59-7.39,38.37,0,0-1.9,22.68-4.5,29.77-1.5,4.1-6.89,11.19-11.09,16.39-8.29,10.29-22.08,31.67-14.69,34.07,0,0,5.8.6,13.39-14.59,0,0-.2,5.8-6.29,22.68-1.2,3.1-6.29,19.18,2,13.39,0,0,3.8-2.6,8.79-19.08,0,0-2.7,27.78.3,29.18,3.9,1.9,6-3.6,7.79-27.88,0,0,1.8-7.89,2.6,22.08,0,1.5,2.3,9.29,5.5,2.7,2.7-5.5,1.5-20.08,1.5-24.98,0,0,3.4,18.88,6.6,18.88,0,0,3.8,4.4,2.2-19.08-.3-3.8,1.1-11.69,1.3-13.99l.4-8.99s-.9-10.29-.9-14.59c0-1.1,3.7-15.09,13.49-29.98,0,0,20.28-35.97,18.98-59.45,0,0-.3-22.38,7.89-35.07,0,0,5.8,63.55,1.9,81.33,0,0-18.18,43.76-14.19,76.44,3,24.28,8.69,76.24,14.49,96.72,3,10.59,1.2,37.37,3.7,44.06,1.1,2.9.5,5.6-1.8,12.19-8.19,22.98-7.09,39.17,13.49,100.22,0,0,4.38,19.05,1.19,43.33,0,0-45.01.98,1,18,0,0,11.24,5.51,23.19,4.41,0,0,11.87.47,6.69-24.08,0,0-4.3-30.17-6.69-36.07-4.5-11.19-1.3-41.96-.4-48.56,1.6-10.99.7-29.78-2.1-44.36-2.1-10.39,3.6-30.07,5.6-42.16,4-25.68,14.99-103.21,14.99-103.21h0Z"/></svg>